<svg width="28" height="28" viewBox="0 0 28 28" fill="none" xmlns="http://www.w3.org/2000/svg">
<path d="M14 0C6.27177 0 0 6.27177 0 14C0 21.7282 6.27177 28 14 28C21.7282 28 28 21.7282 28 14C28 6.27177 21.7282 0 14 0ZM19.6847 20.5992C19.4476 20.5992 19.3008 20.5258 19.0806 20.396C15.5581 18.2734 11.4597 18.1831 7.4121 19.0129C7.19194 19.0694 6.90403 19.1597 6.74032 19.1597C6.19274 19.1597 5.84839 18.725 5.84839 18.2677C5.84839 17.6863 6.19274 17.4097 6.61613 17.3194C11.2395 16.2976 15.9645 16.3879 19.9952 18.7984C20.3395 19.0185 20.5427 19.2161 20.5427 19.7298C20.5427 20.2435 20.1419 20.5992 19.6847 20.5992ZM21.2032 16.896C20.9097 16.896 20.7121 16.7661 20.5089 16.6589C16.9806 14.5702 11.7194 13.729 7.03952 14.9992C6.76855 15.0726 6.62177 15.146 6.36774 15.146C5.76371 15.146 5.27258 14.6548 5.27258 14.0508C5.27258 13.4468 5.56613 13.046 6.14758 12.8823C7.71694 12.4419 9.32016 12.1145 11.6685 12.1145C15.3323 12.1145 18.8718 13.0234 21.6605 14.6831C22.1177 14.954 22.2984 15.304 22.2984 15.7952C22.2927 16.4048 21.8185 16.896 21.2032 16.896ZM22.9532 12.5944C22.6597 12.5944 22.479 12.521 22.225 12.3742C18.2056 9.975 11.0194 9.39919 6.36774 10.6976C6.16452 10.754 5.91048 10.8444 5.63952 10.8444C4.89435 10.8444 4.32419 10.2629 4.32419 9.5121C4.32419 8.74435 4.79839 8.30968 5.30645 8.1629C7.29355 7.58145 9.51774 7.30484 11.9395 7.30484C16.0605 7.30484 20.379 8.1629 23.5347 10.0032C23.975 10.2573 24.2629 10.6073 24.2629 11.279C24.2629 12.0468 23.6419 12.5944 22.9532 12.5944Z" fill="#656564"/>
</svg>
